# Created by DisUnity v0.3.4
v -9.779 -13.525499 4.0005
v 9.779 -13.525499 4.0005
v -9.779 13.525499 4.0005
v 9.779 13.525499 4.0005
v -9.779 13.525499 -4.0005
v 9.779 13.525499 -4.0005
v -9.779 -13.525499 -4.0005
v 9.779 -13.525499 -4.0005
v -9.779 13.525499 4.0005
v 9.779 13.525499 4.0005
v -9.779 13.525499 -4.0005
v 9.779 13.525499 -4.0005
v -9.779 -13.525499 -4.0005
v -9.779 -13.525499 4.0005
v 9.779 -13.525499 -4.0005
v 9.779 -13.525499 4.0005
v 9.779 -13.525499 4.0005
v 9.779 13.525499 4.0005
v 9.779 -13.525499 -4.0005
v 9.779 13.525499 -4.0005
v -9.779 -13.525499 -4.0005
v -9.779 13.525499 -4.0005
v -9.779 -13.525499 4.0005
v -9.779 13.525499 4.0005
vn -0.0 0.0 1.0
vn -0.0 0.0 1.0
vn -0.0 0.0 1.0
vn -0.0 0.0 1.0
vn -0.0 1.0 0.0
vn -0.0 1.0 0.0
vn -0.0 0.0 -1.0
vn -0.0 0.0 -1.0
vn -0.0 1.0 0.0
vn -0.0 1.0 0.0
vn -0.0 0.0 -1.0
vn -0.0 0.0 -1.0
vn -0.0 -1.0 0.0
vn -0.0 -1.0 0.0
vn -0.0 -1.0 0.0
vn -0.0 -1.0 0.0
vn 1.0 0.0 0.0
vn 1.0 0.0 0.0
vn 1.0 0.0 0.0
vn 1.0 0.0 0.0
vn -1.0 0.0 0.0
vn -1.0 0.0 0.0
vn -1.0 0.0 0.0
vn -1.0 0.0 0.0
vt 9.980015E-4 0.999002
vt 0.38503096 0.999002
vt 9.980015E-4 0.5009384
vt 0.38503096 0.5009384
vt 0.8442612 0.13790655
vt 0.8442612 0.49906158
vt 0.39098033 0.5009384
vt 0.7750133 0.5009384
vt 0.69365996 0.13790655
vt 0.69365996 0.49906158
vt 0.39098033 0.999002
vt 0.7750133 0.999002
vt 0.5389193 0.13790655
vt 0.6895205 0.13790655
vt 0.5389193 0.49906158
vt 0.6895205 0.49906158
vt 0.78076774 0.999002
vt 0.78076774 0.5009384
vt 0.93136895 0.999002
vt 0.93136895 0.5009384
vt 0.84840065 0.49906164
vt 0.84840065 9.981394E-4
vt 0.9990019 0.49906164
vt 0.9990019 9.981394E-4

g a2678_hr
s 1
usemtl a2678_hr
g a2678_hr
f 3/3/3 2/2/2 4/4/4 
f 2/2/2 3/3/3 1/1/1 
f 5/5/5 10/10/10 6/6/6 
f 10/10/10 5/5/5 9/9/9 
f 7/7/7 12/12/12 8/8/8 
f 12/12/12 7/7/7 11/11/11 
f 14/14/14 15/15/15 16/16/16 
f 15/15/15 14/14/14 13/13/13 
f 18/18/18 19/19/19 20/20/20 
f 19/19/19 18/18/18 17/17/17 
f 22/22/22 23/23/23 24/24/24 
f 23/23/23 22/22/22 21/21/21 

